<svg xmlns="http://www.w3.org/2000/svg" width="484.389" height="427.25" viewBox="0 0 484.389 427.25">
  <path id="ntro_pattern3" d="M.551,349.746c24.456,135.149,271.88,64.267,406.083,6.607,9.988-4.291,19.359-10.391,24.828-19.784,15.868-27.251,15.723-65.169,10.888-96.063-3.817-24.379-1.076-50.026,10.391-71.875C553.313-22.988,392.349-15.4,274.669,19.434c-17.531,5.188-36.168,5.149-53.968.978C110.856-5.326,87.651,58.333,90.4,103.867c.447,7.393,2.938,14.457,5.4,21.443l.015.041c7.553,21.42,5.993,37.2.832,48.247-8.1,17.349-31.194,24.3-33.087,43.359a245.07,245.07,0,0,0-.35,36.7C5.731,292.429-2.513,333.871.551,349.746Z" transform="translate(0 0)" fill="#f15921" opacity="0.8"/>
</svg>
